<svg width="26" height="34" viewBox="0 0 26 34" fill="none" xmlns="http://www.w3.org/2000/svg">
<path d="M3.4991 12.6562C3.49883 11.0339 3.89956 9.43658 4.66564 8.00646C5.43173 6.57634 6.53941 5.35774 7.89014 4.45906C9.24088 3.56039 10.7928 3.00949 12.4078 2.85539C14.0229 2.70129 15.651 2.94876 17.1473 3.57579C18.6436 4.20281 19.9618 5.18995 20.9845 6.44939C22.0072 7.70883 22.7027 9.20152 23.0093 10.7947C23.3158 12.3878 23.2239 14.0321 22.7415 15.5811C22.2592 17.1301 21.4015 18.5359 20.2447 19.6734C19.7019 20.2078 19.2238 20.9025 18.9932 21.7434L18.0228 25.3125H8.66285L7.68972 21.7434C7.46391 20.9551 7.033 20.2408 6.44097 19.6734C5.508 18.7586 4.76718 17.6667 4.26199 16.4617C3.7568 15.2567 3.49743 13.9629 3.4991 12.6562ZM9.43347 28.125H17.2522L16.7713 29.9025C16.6898 30.2002 16.5127 30.4628 16.2672 30.6498C16.0217 30.8369 15.7215 30.938 15.4128 30.9375H11.2728C10.9642 30.938 10.664 30.8369 10.4185 30.6498C10.173 30.4628 9.99589 30.2002 9.91441 29.9025L9.43347 28.125ZM13.3428 0C10.831 0.000416654 8.3761 0.748247 6.29062 2.1483C4.20514 3.54834 2.58342 5.53728 1.63191 7.86193C0.680399 10.1866 0.442128 12.7418 0.947428 15.2023C1.45273 17.6628 2.67874 19.9173 4.46941 21.6788C4.70623 21.8986 4.88086 22.177 4.97566 22.4859L7.20316 30.6422C7.44682 31.5348 7.97718 32.3226 8.71257 32.8842C9.44795 33.4457 10.3476 33.75 11.2728 33.75H15.4128C16.3381 33.75 17.2377 33.4457 17.9731 32.8842C18.7085 32.3226 19.2389 31.5348 19.4825 30.6422L21.7072 22.4859C21.8029 22.1768 21.9785 21.8983 22.2163 21.6788C24.007 19.9173 25.233 17.6628 25.7383 15.2023C26.2436 12.7418 26.0053 10.1866 25.0538 7.86193C24.1023 5.53728 22.4806 3.54834 20.3951 2.1483C18.3096 0.748247 15.8547 0.000416654 13.3428 0Z" fill="#750077"/>
</svg>
