<svg width="29" height="28" viewBox="0 0 29 28" fill="none" xmlns="http://www.w3.org/2000/svg">
<path d="M14.488 0.180725C10.7688 0.180725 10.3011 0.197856 8.83986 0.262954C7.37859 0.331478 6.38327 0.561034 5.5113 0.900228C4.59624 1.24341 3.76761 1.78316 3.08384 2.48142C2.38558 3.16519 1.84582 3.99382 1.50265 4.90889C1.16345 5.77914 0.932182 6.77617 0.865371 8.23231C0.800273 9.69701 0.783142 10.163 0.783142 13.8873C0.783142 17.6081 0.800273 18.0741 0.865371 19.5354C0.933895 20.9949 1.16345 21.9902 1.50265 22.8622C1.85383 23.7633 2.32151 24.5273 3.08384 25.2897C3.84446 26.052 4.6085 26.5214 5.50959 26.8709C6.38327 27.2101 7.37687 27.4413 8.83644 27.5081C10.2994 27.5732 10.7654 27.5904 14.488 27.5904C18.2105 27.5904 18.6748 27.5732 20.1378 27.5081C21.5956 27.4396 22.5944 27.2101 23.4663 26.8709C24.3808 26.5275 25.2088 25.9877 25.8921 25.2897C26.6544 24.5273 27.1221 23.7633 27.4733 22.8622C27.8108 21.9902 28.042 20.9949 28.1106 19.5354C28.1756 18.0741 28.1928 17.6081 28.1928 13.8855C28.1928 10.163 28.1756 9.69701 28.1106 8.23402C28.042 6.77617 27.8108 5.77914 27.4733 4.90889C27.1301 3.99382 26.5903 3.16519 25.8921 2.48142C25.2083 1.78316 24.3797 1.24341 23.4646 0.900228C22.5909 0.561034 21.5939 0.329765 20.1361 0.262954C18.6731 0.197856 18.2088 0.180725 14.4845 0.180725H14.488ZM13.2597 2.65102H14.4897C18.1489 2.65102 18.5823 2.66301 20.0264 2.72982C21.3626 2.78978 22.089 3.0142 22.5721 3.20092C23.2111 3.44932 23.6685 3.7474 24.1481 4.22707C24.6278 4.70674 24.9242 5.16243 25.1726 5.80313C25.361 6.28451 25.5837 7.01087 25.6437 8.34708C25.7105 9.79123 25.7242 10.2246 25.7242 13.8821C25.7242 17.5396 25.7105 17.9747 25.6437 19.4189C25.5837 20.7551 25.3593 21.4797 25.1726 21.9628C24.9513 22.5571 24.6008 23.0948 24.1464 23.5372C23.6668 24.0168 23.2111 24.3132 22.5704 24.5616C22.0907 24.75 21.3644 24.9727 20.0264 25.0344C18.5823 25.0995 18.1489 25.1149 14.4897 25.1149C10.8305 25.1149 10.3954 25.0995 8.95121 25.0344C7.615 24.9727 6.89035 24.75 6.40726 24.5616C5.81252 24.341 5.27421 23.9911 4.8312 23.5372C4.37599 23.0945 4.02489 22.5562 3.80334 21.9611C3.61661 21.4797 3.3922 20.7534 3.33224 19.4172C3.26714 17.973 3.25344 17.5396 3.25344 13.8787C3.25344 10.2178 3.26714 9.7878 3.33224 8.34366C3.39391 7.00744 3.61661 6.28108 3.80505 5.79799C4.05345 5.159 4.35153 4.7016 4.8312 4.22193C5.31087 3.74226 5.76656 3.4459 6.40726 3.1975C6.89035 3.00906 7.615 2.78635 8.95121 2.72468C10.2155 2.66644 10.7054 2.64931 13.2597 2.64759V2.65102ZM21.8046 4.92602C21.5887 4.92602 21.3748 4.96856 21.1753 5.05121C20.9757 5.13385 20.7944 5.25499 20.6417 5.4077C20.489 5.56042 20.3679 5.74171 20.2852 5.94124C20.2026 6.14077 20.16 6.35463 20.16 6.5706C20.16 6.78657 20.2026 7.00042 20.2852 7.19995C20.3679 7.39948 20.489 7.58078 20.6417 7.73349C20.7944 7.8862 20.9757 8.00734 21.1753 8.08999C21.3748 8.17264 21.5887 8.21518 21.8046 8.21518C22.2408 8.21518 22.6591 8.04191 22.9675 7.73349C23.2759 7.42507 23.4492 7.00677 23.4492 6.5706C23.4492 6.13443 23.2759 5.71612 22.9675 5.4077C22.6591 5.09929 22.2408 4.92602 21.8046 4.92602ZM14.4897 6.84812C13.5562 6.83356 12.6291 7.00484 11.7624 7.35201C10.8957 7.69918 10.1067 8.2153 9.44142 8.87031C8.77611 9.52532 8.24775 10.3061 7.88711 11.1673C7.52646 12.0285 7.34073 12.9528 7.34073 13.8864C7.34073 14.82 7.52646 15.7443 7.88711 16.6055C8.24775 17.4667 8.77611 18.2475 9.44142 18.9025C10.1067 19.5575 10.8957 20.0736 11.7624 20.4208C12.6291 20.768 13.5562 20.9392 14.4897 20.9247C16.3373 20.8959 18.0995 20.1416 19.396 18.8248C20.6924 17.508 21.419 15.7343 21.419 13.8864C21.419 12.0385 20.6924 10.2648 19.396 8.94796C18.0995 7.63116 16.3373 6.87695 14.4897 6.84812ZM14.4897 9.3167C15.0897 9.3167 15.6838 9.43488 16.2381 9.66448C16.7924 9.89409 17.2961 10.2306 17.7203 10.6549C18.1446 11.0791 18.4811 11.5828 18.7107 12.1371C18.9403 12.6914 19.0585 13.2856 19.0585 13.8855C19.0585 14.4855 18.9403 15.0796 18.7107 15.634C18.4811 16.1883 18.1446 16.6919 17.7203 17.1162C17.2961 17.5405 16.7924 17.877 16.2381 18.1066C15.6838 18.3362 15.0897 18.4544 14.4897 18.4544C13.2779 18.4544 12.1158 17.973 11.259 17.1162C10.4022 16.2594 9.92083 15.0973 9.92083 13.8855C9.92083 12.6738 10.4022 11.5117 11.259 10.6549C12.1158 9.79806 13.2779 9.3167 14.4897 9.3167Z" fill="white"/>
</svg>
