<svg width="29" height="28" viewBox="0 0 29 28" fill="none" xmlns="http://www.w3.org/2000/svg">
<path d="M28.3003 19.9259C28.1101 19.4069 27.747 19.1294 27.3341 18.8998C27.2665 18.8584 27.1961 18.8218 27.1234 18.7902L26.7482 18.6C25.46 17.9165 24.4544 17.0548 23.7572 16.0338C23.5589 15.7466 23.3869 15.4421 23.2432 15.1241C23.185 14.9528 23.1884 14.8569 23.2295 14.7695C23.2707 14.7002 23.3276 14.6415 23.3957 14.5982C23.6167 14.4509 23.8445 14.3018 23.9987 14.2025C24.2762 14.0243 24.4938 13.8821 24.6343 13.7828C25.1636 13.4127 25.5336 13.0187 25.7649 12.5802C25.9258 12.2767 26.0195 11.9422 26.0399 11.5994C26.0603 11.2566 26.0068 10.9133 25.8831 10.593C25.5319 9.67131 24.6617 9.09914 23.6064 9.09914C23.3245 9.09795 23.0438 9.13541 22.7721 9.21049C22.7824 8.58007 22.7687 7.91367 22.7122 7.25926C22.5134 4.95685 21.7066 3.75083 20.8672 2.78807C20.3289 2.18552 19.6951 1.67563 18.9913 1.27882C17.715 0.550755 16.2692 0.180725 14.6914 0.180725C13.1137 0.180725 11.6764 0.550755 10.4001 1.27882C9.6943 1.67626 9.06045 2.18677 8.52082 2.79149C7.6814 3.75426 6.87625 4.96199 6.67581 7.26269C6.61928 7.9171 6.60729 8.58521 6.61414 9.2122C6.34244 9.13713 6.06174 9.09966 5.77986 9.10085C4.7263 9.10085 3.85433 9.67474 3.50486 10.5964C3.38035 10.9168 3.32616 11.2602 3.34597 11.6033C3.36577 11.9465 3.4591 12.2814 3.61964 12.5853C3.85262 13.0239 4.22265 13.4179 4.75029 13.7862C4.89076 13.8855 5.11004 14.026 5.38585 14.2076L5.96659 14.5862C6.04051 14.6363 6.10394 14.7003 6.15332 14.7746C6.19786 14.8654 6.19957 14.9631 6.13276 15.1464C5.99079 15.4576 5.82168 15.7557 5.62739 16.0372C4.94558 17.0359 3.96911 17.8822 2.72197 18.5589C2.06243 18.9084 1.37547 19.1413 1.08596 19.9294C0.866682 20.5255 1.01058 21.2022 1.56563 21.771C1.7712 21.9868 2.00475 22.1638 2.26629 22.302C2.80711 22.5997 3.38245 22.8299 3.97939 22.9873C4.10218 23.02 4.21898 23.072 4.32544 23.1414C4.52758 23.3196 4.50017 23.5868 4.76913 23.9774C4.90618 24.1807 5.0752 24.352 5.27621 24.4914C5.84153 24.8837 6.47709 24.9076 7.15206 24.9333C7.76021 24.9573 8.45059 24.9847 9.2369 25.2417C9.56239 25.3513 9.9033 25.5603 10.2956 25.8036C11.2378 26.3826 12.5312 27.1775 14.6914 27.1775C16.8534 27.1775 18.1519 26.3792 19.1044 25.7967C19.4932 25.5569 19.8307 25.3513 20.1476 25.2468C20.9357 24.9864 21.6261 24.959 22.2342 24.9368C22.9075 24.9111 23.543 24.8854 24.1101 24.4948C24.3461 24.3297 24.5426 24.1144 24.6857 23.8644C24.881 23.5354 24.8741 23.3042 25.0574 23.1449C25.1563 23.0765 25.2665 23.0261 25.3829 22.9958C25.9879 22.8365 26.5712 22.6041 27.12 22.3037C27.3941 22.1547 27.6442 21.9611 27.8549 21.7281L27.8617 21.7196C28.3825 21.1628 28.5127 20.505 28.3003 19.9259ZM26.3799 20.9572C25.2082 21.6048 24.4287 21.5345 23.8223 21.9251C23.3083 22.2558 23.6133 22.9701 23.2398 23.2271C22.779 23.5457 21.4222 23.2065 19.668 23.7856C18.2204 24.2635 17.297 25.6391 14.6948 25.6391C12.0926 25.6391 11.1916 24.2669 9.72 23.7821C7.96921 23.2031 6.609 23.5423 6.14989 23.2254C5.77643 22.9684 6.07965 22.2523 5.56572 21.9217C4.95928 21.5311 4.17982 21.6014 3.00977 20.9572C2.26286 20.5461 2.686 20.2891 2.9344 20.1692C7.17946 18.1152 7.85614 14.9442 7.88526 14.7078C7.92295 14.4235 7.96235 14.199 7.64885 13.9095C7.34564 13.6286 6.00085 12.796 5.62739 12.5356C5.01068 12.1039 4.73658 11.6739 4.93873 11.1446C5.0792 10.778 5.42011 10.6392 5.77815 10.6392C5.89161 10.6406 6.00466 10.6532 6.11563 10.6769C6.79402 10.8242 7.45185 11.1651 7.83216 11.2559C7.87784 11.2674 7.92466 11.2736 7.97263 11.2748C8.17478 11.2748 8.24673 11.172 8.23302 10.9407C8.18848 10.1989 8.08398 8.75309 8.20047 7.40145C8.36151 5.54445 8.96109 4.6228 9.67203 3.80908C10.0146 3.41678 11.6198 1.71909 14.6914 1.71909C17.7613 1.71909 19.3716 3.40992 19.7125 3.80051C20.4252 4.61423 21.0248 5.53588 21.1841 7.3946C21.3006 8.74452 21.1995 10.1904 21.1515 10.9322C21.1344 11.1754 21.2098 11.2662 21.4119 11.2662C21.4592 11.2654 21.5063 11.2596 21.5524 11.2491C21.9327 11.1566 22.5922 10.8157 23.2689 10.6701C23.3798 10.6458 23.4929 10.6326 23.6064 10.6306C23.9662 10.6306 24.3071 10.7711 24.4458 11.136C24.6463 11.6654 24.3773 12.0954 23.7589 12.5271C23.3854 12.7874 22.0406 13.62 21.7374 13.901C21.4222 14.1905 21.4633 14.4149 21.4993 14.6993C21.5301 14.9391 22.2068 18.1101 26.4502 20.1624C26.702 20.2874 27.1251 20.5427 26.3799 20.9572Z" fill="white"/>
</svg>
